<svg width="165" height="52" viewBox="0 0 165 52" fill="none" xmlns="http://www.w3.org/2000/svg">
<path d="M0 27.8203L3.21137 25.9049V42.3448L7.77598 42.9984V23.184V21.2382V13.9114L0 18.5477V27.8203Z" fill="white"/>
<path d="M31.1065 18.5477L23.3306 13.9114V21.2382V23.184V42.9984L27.8926 42.3448V25.9049L31.1065 27.8203V18.5477Z" fill="white"/>
<path d="M15.5519 0L7.77588 4.6363V13.9114L13.2708 10.6331V52L17.8354 51.3438V10.6331L23.3304 13.9114V4.6363L15.5519 0Z" fill="white"/>
<path d="M47.8578 41.8812V23.0548H40.3843V18.7073H60.0908V23.0548H52.6172V41.8812H47.8578Z" fill="white"/>
<path d="M82.9728 41.8812H77.2831L72.6211 35.2789H67.7951V41.8812H63.1331V18.7073H72.6544C75.7197 18.7073 78.0622 19.4158 79.682 20.8329C81.3018 22.2499 82.1117 24.2979 82.1117 26.9766C82.1117 30.6806 80.5577 33.1541 77.4497 34.3972L82.9728 41.8812ZM71.8958 31.3241C73.6574 31.3241 74.985 30.9542 75.8786 30.2144C76.32 29.848 76.6704 29.3863 76.9028 28.865C77.1352 28.3436 77.2434 27.7764 77.219 27.2072C77.219 24.2852 75.5651 22.8251 72.2571 22.8267H67.7951V31.3241H71.8958Z" fill="white"/>
<path d="M85.9485 41.8812V18.7073H90.7412V41.8812H85.9485Z" fill="white"/>
<path d="M101.493 41.8812V23.0548H94.0139V18.7073H113.72V23.0548H106.249V41.8812H101.493Z" fill="white"/>
<path d="M126.948 42.3398C123.267 42.3398 120.253 41.2335 117.906 39.0209C115.558 36.8084 114.384 33.905 114.384 30.3108C114.384 26.7639 115.536 23.8656 117.839 21.6158C120.142 19.3661 123.179 18.2412 126.948 18.2412C130.652 18.2412 133.683 19.3559 136.041 21.5854C138.399 23.8149 139.578 26.7234 139.578 30.3108C139.578 33.8391 138.415 36.7264 136.09 38.9728C133.764 41.2192 130.717 42.3415 126.948 42.3398ZM126.948 37.9923C129.219 37.9923 131.076 37.2897 132.52 35.8845C133.963 34.4792 134.685 32.6213 134.685 30.3108C134.685 28.0458 133.98 26.1939 132.568 24.7548C131.157 23.3158 129.284 22.5971 126.948 22.5988C124.701 22.5988 122.855 23.3065 121.409 24.7219C119.964 26.1373 119.242 28.0002 119.244 30.3108C119.244 32.5774 119.954 34.4243 121.376 35.8515C122.798 37.2787 124.655 37.9957 126.948 38.0025V37.9923Z" fill="white"/>
<path d="M159.582 18.7074H164.211V42.0156H161.799L147.813 27.3061V41.8838H143.182V18.5757H145.529L159.582 33.2826V18.7074Z" fill="white"/>
</svg>
